<svg width="16" height="16" viewBox="0 0 16 16" fill="none" xmlns="http://www.w3.org/2000/svg">
<path d="M11.1425 0.5H4.8575C2.1275 0.5 0.5 2.1275 0.5 4.8575V11.135C0.5 13.8725 2.1275 15.5 4.8575 15.5H11.135C13.865 15.5 15.4925 13.8725 15.4925 11.1425V4.8575C15.5 2.1275 13.8725 0.5 11.1425 0.5ZM11.945 6.47L10.2125 8.705C9.995 8.9825 9.6875 9.1625 9.335 9.2C8.9825 9.245 8.6375 9.1475 8.36 8.93L6.9875 7.85C6.935 7.805 6.875 7.805 6.845 7.8125C6.815 7.8125 6.7625 7.8275 6.7175 7.8875L4.9325 10.205C4.82 10.3475 4.655 10.4225 4.49 10.4225C4.37 10.4225 4.25 10.385 4.145 10.3025C3.8975 10.115 3.8525 9.7625 4.04 9.515L5.825 7.1975C6.0425 6.92 6.35 6.74 6.7025 6.695C7.0475 6.65 7.4 6.7475 7.6775 6.965L9.05 8.045C9.1025 8.09 9.155 8.09 9.1925 8.0825C9.2225 8.0825 9.275 8.0675 9.32 8.0075L11.0525 5.7725C11.24 5.525 11.6 5.48 11.84 5.675C12.0875 5.8775 12.1325 6.23 11.945 6.47Z" fill="white" fill-opacity="1"/>
</svg>
