<svg width="14" height="14" viewBox="0 0 14 14" fill="none" xmlns="http://www.w3.org/2000/svg">
<path fill-rule="evenodd" clip-rule="evenodd" d="M2 0C0.895431 0 0 0.89543 0 2V4C0 5.10457 0.89543 6 2 6H4C5.10457 6 6 5.10457 6 4V2C6 0.895431 5.10457 0 4 0H2ZM2 8C0.895431 8 0 8.89543 0 10V12C0 13.1046 0.89543 14 2 14H4C5.10457 14 6 13.1046 6 12V10C6 8.89543 5.10457 8 4 8H2ZM8 2C8 0.89543 8.89543 0 10 0H12C13.1046 0 14 0.895431 14 2V4C14 5.10457 13.1046 6 12 6H10C8.89543 6 8 5.10457 8 4V2ZM10 8C8.89543 8 8 8.89543 8 10V12C8 13.1046 8.89543 14 10 14H12C13.1046 14 14 13.1046 14 12V10C14 8.89543 13.1046 8 12 8H10Z" fill="white" fill-opacity="1"/>
</svg>
