<svg width="16" height="16" viewBox="0 0 16 16" fill="none" xmlns="http://www.w3.org/2000/svg">
<path d="M11.1425 0.5H4.8575C2.1275 0.5 0.5 2.1275 0.5 4.8575V11.135C0.5 13.8725 2.1275 15.5 4.8575 15.5H11.135C13.865 15.5 15.4925 13.8725 15.4925 11.1425V4.8575C15.5 2.1275 13.8725 0.5 11.1425 0.5ZM10.8125 10.8125H5.1875C4.88 10.8125 4.625 10.5575 4.625 10.25C4.625 9.9425 4.88 9.6875 5.1875 9.6875H10.8125C11.12 9.6875 11.375 9.9425 11.375 10.25C11.375 10.5575 11.12 10.8125 10.8125 10.8125ZM10.8125 6.3125H5.1875C4.88 6.3125 4.625 6.0575 4.625 5.75C4.625 5.4425 4.88 5.1875 5.1875 5.1875H10.8125C11.12 5.1875 11.375 5.4425 11.375 5.75C11.375 6.0575 11.12 6.3125 10.8125 6.3125Z" fill="white" fill-opacity="1"/>
</svg>
