<svg width="16" height="16" viewBox="0 0 16 16" fill="none" xmlns="http://www.w3.org/2000/svg">
<path d="M7.66671 14.4999C3.90004 14.4999 0.833374 11.4333 0.833374 7.66659C0.833374 3.89992 3.90004 0.833252 7.66671 0.833252C11.4334 0.833252 14.5 3.89992 14.5 7.66659C14.5 11.4333 11.4334 14.4999 7.66671 14.4999ZM7.66671 1.83325C4.44671 1.83325 1.83337 4.45325 1.83337 7.66659C1.83337 10.8799 4.44671 13.4999 7.66671 13.4999C10.8867 13.4999 13.5 10.8799 13.5 7.66659C13.5 4.45325 10.8867 1.83325 7.66671 1.83325Z" fill="#646B75"/>
<path d="M14.6666 15.1666C14.54 15.1666 14.4133 15.12 14.3133 15.02L12.98 13.6866C12.7866 13.4933 12.7866 13.1733 12.98 12.98C13.1733 12.7866 13.4933 12.7866 13.6866 12.98L15.02 14.3133C15.2133 14.5066 15.2133 14.8266 15.02 15.02C14.92 15.12 14.7933 15.1666 14.6666 15.1666Z" fill="#646B75"/>
</svg>
